<?xml version="1.0" encoding="utf-8"?>
<!-- Generator: Adobe Illustrator 18.1.0, SVG Export Plug-In . SVG Version: 6.00 Build 0)  -->
<svg version="1.1" id="Layer_1" xmlns="http://www.w3.org/2000/svg" xmlns:xlink="http://www.w3.org/1999/xlink" x="0px" y="0px"
	 width="841.89px" height="595.28px" viewBox="0 0 841.89 595.28" style="enable-background:new 0 0 841.89 595.28;"
	 xml:space="preserve">
<g>
	<path style="fill:#FFFFFF;" d="M660.737,255.46c31.692,90.113,13.746,167.243-64.912,223.373
		c-59.566,42.384-126.769,45.82-189.39,8.782c-90.113-53.457-111.878-134.406-79.422-231.774c-106.914,0-213.827,0-321.505,0
		c0,3.818,0,6.491,0,9.546c0,79.803,0,159.989,0,239.792c0,9.546,0,19.474,0.382,29.019c0.764,12.982,5.346,24.437,13.364,34.365
		c15.273,19.474,35.511,26.728,59.948,26.728c227.573-0.382,455.147,0,682.72,0c4.582,0,8.782,0,13.364-0.382
		c12.601-1.145,24.056-5.728,34.365-13.364c19.092-14.892,26.728-35.129,26.728-59.184c0-85.913,0-172.207,0.382-258.12
		c0-2.673-0.382-5.346-0.382-8.4C777.197,255.46,718.776,255.46,660.737,255.46z M835.235,236.75
		c0.382-1.909,0.764-3.818,0.764-5.346c0-30.929,0-61.475,0-92.404c0-5.728-0.764-11.837-1.909-17.183
		c-8.782-33.22-33.983-51.548-70.258-51.548c-228.719,0-457.438,0-686.157,0c-6.873,0-14.128,0.382-20.619,1.909
		c-31.692,8.019-50.784,33.22-51.166,67.203c-0.382,28.638,0,57.275,0,85.913c0,3.436,0,6.873,0,11.073
		c2.673,0.382,4.582,0.382,6.491,0.382c106.914,0,213.827,0,320.359,0c3.436,0,7.637-2.673,9.546-5.728
		c15.273-22.528,33.983-41.62,57.657-55.748c45.438-27.492,93.931-34.365,144.715-19.474c42.384,12.6,75.985,37.802,100.422,75.221
		c3.055,4.964,6.491,6.491,12.219,6.491c56.511,0,113.405,0,169.916,0C829.508,237.132,832.181,236.75,835.235,236.75z
		 M378.179,329.536c-0.764,62.239,50.784,114.55,113.787,115.696c64.53,1.145,117.605-50.402,117.987-114.55
		c0.764-62.621-51.93-116.46-114.55-116.841C432.018,212.695,378.943,265.388,378.179,329.536z M557.26,59.961
		c-11.455-18.328-22.528-35.511-32.838-52.693c-3.055-4.964-6.491-6.873-12.6-6.873c-57.275,0.382-114.169,0.764-171.444-0.382
		c-15.273-0.382-24.819,3.436-32.456,17.183c-8.019,14.51-18.71,27.874-28.638,42.765C372.452,59.961,464.092,59.961,557.26,59.961z
		 M641.645,59.961c37.038,0,72.549,0,109.587,0c-4.2-10.691-8.018-21.001-12.219-30.547c-0.764-1.527-3.818-3.055-6.109-3.055
		c-24.055-0.382-48.111-0.382-72.549,0c-2.291,0-5.346,1.909-6.109,3.818C650.046,39.724,646.227,49.27,641.645,59.961z
		 M184.589,59.961c-1.527-6.109-1.909-11.455-3.818-16.037c-0.764-2.291-4.2-5.346-6.109-5.346c-17.183-0.382-34.365-0.382-51.548,0
		c-1.909,0-5.346,1.909-6.109,3.818c-2.291,5.346-3.818,11.455-5.728,17.564C135.714,59.961,159.388,59.961,184.589,59.961z"/>
	<path d="M660.737,255.46c58.421,0,116.46,0,175.262,0c0,3.055,0.382,5.728,0.382,8.4c0,85.913-0.382,172.207-0.382,258.12
		c0,23.674-7.255,43.911-26.728,59.184c-9.928,8.019-21.383,12.601-34.365,13.364c-4.582,0.382-8.782,0.382-13.364,0.382
		c-227.573,0-455.147,0-682.72,0c-24.437,0-44.675-6.873-59.948-26.728c-7.637-9.928-12.6-21.765-13.364-34.365
		c-0.382-9.546-0.382-19.474-0.382-29.019c0-79.803,0-159.989,0-239.792c0-3.055,0-6.109,0-9.546c107.677,0,214.591,0,321.505,0
		c-32.074,97.368-10.691,178.317,79.422,231.774c62.621,37.038,129.824,33.601,189.39-8.782
		C674.101,422.704,692.429,345.955,660.737,255.46z"/>
	<path d="M835.235,236.75c-3.055,0-5.727,0.382-8.4,0.382c-56.511,0-113.405,0-169.916,0c-5.727,0-8.782-1.527-12.219-6.491
		c-24.437-37.038-57.657-62.621-100.422-75.221c-50.784-14.892-99.277-8.019-144.715,19.474
		c-23.292,14.128-42.002,33.22-57.657,55.748c-1.909,2.673-6.491,5.728-9.546,5.728c-106.914,0.382-213.827,0-320.359,0
		c-1.909,0-3.818-0.382-6.491-0.382c0-3.818,0-7.637,0-11.073c0-28.638-0.382-57.275,0-85.913
		c0.382-33.983,19.474-59.184,51.166-67.203c6.491-1.527,13.746-1.909,20.619-1.909c228.719,0,457.438,0,686.157,0
		c36.274,0,61.475,18.328,70.258,51.548c1.527,5.728,1.909,11.455,1.909,17.183c0.382,30.929,0,61.475,0,92.404
		C835.999,232.932,835.617,234.459,835.235,236.75z"/>
	<path d="M378.179,329.536c0.764-64.148,53.839-116.841,117.223-116.078c62.621,0.764,115.314,54.602,114.55,116.841
		c-0.764,64.148-53.457,115.696-117.987,114.55C428.963,444.086,377.416,391.775,378.179,329.536z"/>
	<path d="M557.26,59.961c-93.168,0-184.808,0-277.976,0c10.31-14.892,20.619-28.256,28.638-42.765
		c7.637-13.746,17.183-17.564,32.456-17.183c57.275,1.146,114.169,0.382,171.444,0.382c6.109,0,9.546,1.909,12.6,6.873
		C535.113,24.832,545.805,41.633,557.26,59.961z M384.671,14.141c0,11.837,0,22.91,0,33.983c23.674,0,46.966,0,70.258,0
		c0-11.455,0-22.528,0-33.983C431.254,14.141,407.962,14.141,384.671,14.141z"/>
	<path d="M641.645,59.961c4.582-10.31,8.4-20.237,12.601-29.783c0.764-1.909,4.2-3.818,6.109-3.818
		c24.056-0.382,48.111-0.382,72.549,0c1.909,0,5.346,1.527,6.109,3.055c4.2,9.928,8.019,19.855,12.219,30.547
		C714.194,59.961,678.683,59.961,641.645,59.961z"/>
	<path d="M184.589,59.961c-25.201,0-48.875,0-73.312,0c1.909-6.109,3.436-12.219,5.728-17.564c0.764-1.909,3.818-3.818,6.109-3.818
		c17.183-0.382,34.365-0.382,51.548,0c2.291,0,5.346,3.055,6.109,5.346C182.68,48.506,183.062,53.852,184.589,59.961z"/>
	<path style="fill:#FFFFFF;" d="M384.671,14.141c23.674,0,46.584,0,70.258,0c0,11.455,0,22.146,0,33.983
		c-23.292,0-46.584,0-70.258,0C384.671,37.433,384.671,26.359,384.671,14.141z"/>
</g>
</svg>
